<?xml version="1.0" encoding="iso-8859-1"?>
<!-- Generator: Adobe Illustrator 19.0.0, SVG Export Plug-In . SVG Version: 6.00 Build 0)  -->
<svg version="1.1" id="Layer_1" xmlns="http://www.w3.org/2000/svg" xmlns:xlink="http://www.w3.org/1999/xlink" x="0px" y="0px"
	 viewBox="0 0 512 512" style="enable-background:new 0 0 512 512;" xml:space="preserve">
<circle style="fill:#64B573;" cx="257.076" cy="318.854" r="25.948"/>
<path style="fill:#449950;" d="M270.051,296.39c-17.214-9.959-38.92,2.471-38.92,22.469c0,20.026,21.722,32.415,38.92,22.467
	C252.767,331.324,252.768,306.392,270.051,296.39z"/>
<path style="fill:#64B573;" d="M325.173,338.068c-5.228-4.907-13.444-4.65-18.352,0.578l-31.103,33.122c-12.22,0-24.335,0-36.516,0
	l-31.102-33.122c-4.91-5.228-13.127-5.485-18.354-0.578c-5.226,4.91-5.483,13.125-0.577,18.353l35.501,37.807v105.297
	c0,6.883,5.582,12.464,12.465,12.464c13.522,0,27.094,0,40.65,0c6.884,0,12.463-5.582,12.463-12.464c0-20.825,0-84.154,0-105.3
	l35.503-37.805C330.659,351.193,330.401,342.978,325.173,338.068z"/>
<circle style="fill:#9FC95D;" cx="95.454" cy="95.325" r="48.078"/>
<path style="fill:#85AA44;" d="M67.98,95.323c0-23.017,16.176-42.244,37.777-46.962c-30.156-6.581-58.38,16.409-58.38,46.962
	c0,30.594,28.272,53.541,58.381,46.962C84.156,137.567,67.98,118.339,67.98,95.323z"/>
<path style="fill:#9FC95D;" d="M120.864,166.11H70.05c-26.023,0-47.192,21.17-47.192,47.192v115.399
	c0.002,6.152,5.011,11.157,11.164,11.157h8.856c-6.11,55.582-6.496,53.17-4.381,55.535c1.986,2.216,2.795,1.713,18.861,1.713
	v103.717c0,6.156,5.009,11.165,11.165,11.165h15.767c4.3,0,8.041-2.443,9.906-6.015h2.521c1.866,3.571,5.604,6.015,9.906,6.015
	h15.767c6.155,0,11.165-5.01,11.165-11.165V397.107c0.053,0,15.044,0,15.044,0c3.229,0,5.695-2.948,5.049-6.179l-5.612-51.07h8.855
	c6.156,0,11.165-5.008,11.165-11.163V213.302C168.056,187.28,146.885,166.11,120.864,166.11z"/>
<path style="fill:#B0DCF7;" d="M435.396,118.083h-57.871c-29.684,0-53.745,24.065-53.745,53.744V303.25
	c0.004,7.018,5.696,12.71,12.716,12.71h26.578v183.314c0,7.022,5.692,12.715,12.714,12.715h17.956
	c7.024,0,12.717-5.693,12.717-12.715c0,7.022,5.692,12.715,12.716,12.715h17.956c7.022,0,12.714-5.693,12.714-12.715V315.96h26.578
	c7.023,0,12.716-5.695,12.716-12.717c0-2.008,0-129.415,0-131.416C489.141,142.148,465.078,118.083,435.396,118.083z"/>
<path style="fill:#7AC1DD;" d="M344.382,303.25V171.827c0-29.68,24.063-53.744,53.745-53.744h-20.603
	c-29.684,0-53.745,24.065-53.745,53.744V303.25c0.004,7.018,5.696,12.71,12.716,12.71H357.1
	C350.079,315.96,344.386,310.267,344.382,303.25z"/>
<path style="fill:#BBE6FC;" d="M435.396,118.083c-66.501,0-56.847-0.007-58.681,0.02c-0.962,76.216,29.98,147.025,82.968,197.857
	h16.742c7.023,0,12.716-5.695,12.716-12.717c0-2.008,0-129.415,0-131.416C489.141,142.148,465.078,118.083,435.396,118.083z"/>
<path style="fill:#9BD4EA;" d="M376.689,122.542c6.57-2.863,13.817-4.459,21.439-4.459c-25.684,0-19.732-0.005-21.413,0.02
	C376.649,123.38,376.679,120.672,376.689,122.542z"/>
<path style="fill:#B0DCF7;" d="M406.457,96.174c26.557,0,48.082-21.526,48.082-48.08s-21.525-48.08-48.082-48.08
	c-26.552,0-48.077,21.526-48.077,48.08S379.906,96.174,406.457,96.174z"/>
<path style="fill:#7AC1DD;" d="M378.69,48.094c0-23.068,16.249-42.333,37.924-46.996c-30.111-6.475-58.232,16.503-58.232,46.996
	c0,30.536,28.174,53.468,58.232,46.996C394.939,90.427,378.69,71.162,378.69,48.094z"/>
<path style="fill:#BBE6FC;" d="M454.539,48.094c0-27.002-22.247-48.681-49.082-48.055c-13.555,26.858-22.759,56.285-26.662,87.366
	C410.34,109.653,454.539,87.219,454.539,48.094z"/>
<g>
	<path style="fill:#9BD4EA;" d="M402.184,6.787c4.404-2.627,9.26-4.577,14.429-5.69c-3.57-0.766-7.255-1.15-11.155-1.059
		C404.333,2.271,403.248,4.523,402.184,6.787z"/>
	<path style="fill:#9BD4EA;" d="M416.612,95.09c-15.582-3.354-28.361-14.254-34.313-28.69c-1.867,9.005-3.503,20.007-3.503,21.007
		C397.062,100.281,415.483,95.09,416.612,95.09z"/>
</g>
<path style="fill:#85AA44;" d="M77.963,500.824v-97.267c0-4.855-2.178-6.154-3.798-6.45c-11.805,0-13.095,0.483-15.064-1.713
	c-2.046-2.288-1.683-0.36,3.436-46.943c1.022-9.312-4.934-8.593-7.91-8.593c-6.155,0-11.163-5.006-11.165-11.157V213.302
	c0-26.022,21.17-47.192,47.192-47.192H70.05c-26.023,0-47.192,21.17-47.192,47.192v115.399c0.002,6.152,5.011,11.157,11.164,11.157
	h8.856c-6.11,55.582-6.496,53.17-4.381,55.535c0.978,1.091,2.372,1.713,3.837,1.713h15.024v103.717
	c0,6.156,5.009,11.165,11.165,11.165c17.363,0,16.407,0.094,18.143-0.281C81.693,510.582,77.963,506.134,77.963,500.824z"/>
<path style="fill:#7AC1DD;" d="M383.676,499.274V330.156c0-10.899-5.068-13.621-8.607-14.195h-11.996v183.314
	c0,7.022,5.692,12.715,12.714,12.715c19.337,0,18.28,0.034,19.28-0.069C388.666,511.258,383.676,505.848,383.676,499.274z"/>
<g>
	<path style="fill:#449950;" d="M324.69,337.659c-5.239-4.463-13.108-4.085-17.869,0.987l-31.103,33.122h13.038
		C294.188,371.556,294.31,370.066,324.69,337.659z"/>
	<path style="fill:#449950;" d="M241.496,400.081c0-6.352-2.846-10.076-3.783-11.131l-33.245-35.405
		c-4.721-5.028-4.848-12.699-0.565-17.881c-12.825-5.681-24.417,10.441-14.734,20.758l35.501,37.807v105.297
		c0,6.883,5.582,12.464,12.465,12.464c3.15,0,4.929,0,8.163,0c-2.348-2.353-3.801-5.598-3.801-9.183V400.081H241.496z"/>
</g>
<g>
</g>
<g>
</g>
<g>
</g>
<g>
</g>
<g>
</g>
<g>
</g>
<g>
</g>
<g>
</g>
<g>
</g>
<g>
</g>
<g>
</g>
<g>
</g>
<g>
</g>
<g>
</g>
<g>
</g>
</svg>
