<svg xmlns="http://www.w3.org/2000/svg" height="591pt" version="1.1" viewBox="-81 1 591 591.6" width="591pt">
<g id="surface1">
<path d="M 173.933594 285.792969 L 173.933594 222.511719 C 217.375 203.035156 245.351562 159.882812 245.382812 112.277344 L 71.867188 112.277344 L 71.867188 0 C 10.421875 28.078125 -16.628906 100.648438 11.453125 162.09375 C 23.667969 188.847656 45.125 210.292969 71.867188 222.511719 L 71.867188 285.792969 " style=" stroke:none;fill-rule:nonzero;fill:rgb(85.490196%,86.666667%,87.45098%);fill-opacity:1;" />
<path d="M 163.726562 112.277344 L 59.925781 216.078125 C 63.78125 218.449219 67.773438 220.589844 71.867188 222.511719 L 71.867188 285.792969 L 173.933594 285.792969 L 173.933594 222.511719 C 217.375 203.035156 245.351562 159.882812 245.382812 112.277344 C 245.382812 112.277344 163.726562 112.277344 163.726562 112.277344 Z M 163.726562 112.277344 " style=" stroke:none;fill-rule:nonzero;fill:rgb(78.039216%,79.215686%,80%);fill-opacity:1;" />
<path d="M 235.175781 285.792969 L 173.933594 285.792969 L 173.933594 224.550781 L 214.761719 224.550781 Z M 235.175781 285.792969 " style=" stroke:none;fill-rule:nonzero;fill:rgb(94.901961%,64.313725%,43.529412%);fill-opacity:1;" />
<path d="M 173.933594 0 L 173.933594 112.277344 L 245.382812 112.277344 C 245.394531 64.148438 217.539062 20.371094 173.933594 0 Z M 173.933594 0 " style=" stroke:none;fill-rule:nonzero;fill:rgb(71.372549%,72.156863%,72.941176%);fill-opacity:1;" />
<path d="M 82.074219 152.0625 L 173.933594 152.0625 L 173.933594 172.476562 L 82.074219 172.476562 Z M 82.074219 152.0625 " style=" stroke:none;fill-rule:nonzero;fill:rgb(71.372549%,72.156863%,72.941176%);fill-opacity:1;" />
<path d="M 235.175781 285.792969 L 429.109375 285.792969 L 429.109375 489.929688 L 235.175781 489.929688 Z M 235.175781 285.792969 " style=" stroke:none;fill-rule:nonzero;fill:rgb(26.27451%,59.607843%,81.960784%);fill-opacity:1;" />
<path d="M 235.175781 489.929688 L 36.140625 489.929688 C 22.046875 489.929688 10.625 478.507812 10.625 464.414062 C 10.625 450.316406 22.046875 438.898438 36.140625 438.898438 C 22.046875 438.898438 10.625 427.476562 10.625 413.378906 C 10.625 399.285156 22.046875 387.863281 36.140625 387.863281 C 22.046875 387.863281 10.625 376.441406 10.625 362.34375 C 10.625 348.25 22.046875 336.828125 36.140625 336.828125 C 22.046875 336.828125 10.625 325.40625 10.625 311.308594 C 10.625 297.214844 22.046875 285.792969 36.140625 285.792969 L 235.175781 285.792969 Z M 235.175781 489.929688 " style=" stroke:none;fill-rule:nonzero;fill:rgb(100%,71.764706%,50.980392%);fill-opacity:1;" />
<path d="M 316.832031 428.691406 C 316.832031 439.964844 307.691406 449.101562 296.417969 449.101562 C 285.144531 449.101562 276.003906 439.964844 276.003906 428.691406 C 276.003906 417.414062 285.144531 408.277344 296.417969 408.277344 C 307.691406 408.277344 316.832031 417.414062 316.832031 428.691406 Z M 316.832031 428.691406 " style=" stroke:none;fill-rule:nonzero;fill:rgb(36.862745%,70.196078%,81.960784%);fill-opacity:1;" />
<path d="M 71.867188 489.929688 L 71.867188 540.964844 C 71.867188 569.148438 94.71875 592 122.902344 592 C 151.082031 592 173.933594 569.148438 173.933594 540.964844 L 173.933594 489.929688 Z M 122.902344 561.378906 C 111.621094 561.378906 102.488281 552.242188 102.488281 540.964844 C 102.488281 529.6875 111.621094 520.550781 122.902344 520.550781 C 134.179688 520.550781 143.3125 529.6875 143.3125 540.964844 C 143.3125 552.242188 134.179688 561.378906 122.902344 561.378906 Z M 122.902344 561.378906 " style=" stroke:none;fill-rule:nonzero;fill:rgb(85.490196%,86.666667%,87.45098%);fill-opacity:1;" />
<path d="M 112.695312 224.550781 L 133.109375 224.550781 L 133.109375 285.792969 L 112.695312 285.792969 Z M 112.695312 224.550781 " style=" stroke:none;fill-rule:nonzero;fill:rgb(71.372549%,72.156863%,72.941176%);fill-opacity:1;" />
<path d="M 71.867188 489.929688 L 173.933594 489.929688 L 173.933594 510.34375 L 71.867188 510.34375 Z M 71.867188 489.929688 " style=" stroke:none;fill-rule:nonzero;fill:rgb(78.039216%,79.215686%,80%);fill-opacity:1;" />
</g>
</svg>